<?xml version="1.0" encoding="UTF-8" standalone="no"?>
<!DOCTYPE svg PUBLIC "-//W3C//DTD SVG 20010904//EN"
              "http://www.w3.org/TR/2001/REC-SVG-20010904/DTD/svg10.dtd">

<svg xmlns="http://www.w3.org/2000/svg"
     width="0.266667in" height="0.266667in"
     viewBox="0 0 24 24">
  <path stroke="black" stroke-width="1"
        d="M 19.28,3.35
           C 19.54,3.45 19.72,3.70 19.72,3.99
             19.72,3.99 19.72,20.84 19.72,20.84
             19.72,21.54 19.15,22.10 18.45,22.10
             18.45,22.10 15.73,22.10 15.73,22.10
             15.73,22.10 15.73,22.92 15.73,22.92
             15.73,23.23 15.61,23.53 15.37,23.74
             15.13,23.94 14.82,24.04 14.51,23.99
             14.51,23.99 4.96,22.55 4.96,22.55
             4.57,22.50 4.28,22.16 4.28,21.77
             4.28,21.77 4.28,5.02 4.28,5.02
             4.28,4.21 4.94,3.56 5.74,3.56
             5.74,3.56 9.44,3.56 9.44,3.56
             9.44,3.56 9.44,1.08 9.44,1.08
             9.44,0.72 9.61,0.39 9.90,0.19
             10.19,-0.01 10.56,-0.06 10.89,0.07
             10.89,0.07 19.28,3.35 19.28,3.35 Z
           M 12.02,17.12
           C 12.02,17.12 10.39,12.06 10.39,12.06
             10.29,11.76 10.04,11.53 9.72,11.48
             9.67,11.47 9.62,11.47 9.57,11.47
             9.31,11.47 9.06,11.59 8.90,11.80
             8.90,11.80 5.64,16.00 5.64,16.00
             5.57,16.08 5.55,16.20 5.59,16.30
             5.63,16.40 5.72,16.47 5.83,16.49
             5.83,16.49 11.67,17.52 11.67,17.52
             11.69,17.52 11.71,17.52 11.73,17.52
             11.82,17.52 11.90,17.49 11.96,17.42
             12.03,17.34 12.06,17.23 12.02,17.12 Z
           M 14.29,15.83
           C 14.29,15.83 13.15,12.28 13.15,12.28
             13.06,11.99 12.81,11.78 12.51,11.73
             12.22,11.68 11.91,11.79 11.73,12.03
             11.73,12.03 11.58,12.23 11.58,12.23
             11.58,12.23 11.59,12.27 11.59,12.27
             11.59,12.27 12.80,16.01 12.80,16.01
             12.80,16.01 13.96,16.21 13.96,16.21
             14.06,16.23 14.17,16.19 14.23,16.11
             14.30,16.04 14.32,15.93 14.29,15.83 Z
           M 18.18,20.18
           C 18.18,20.18 18.18,5.76 18.18,5.76
             18.18,5.39 17.88,5.10 17.51,5.10
             17.51,5.10 7.14,5.10 7.14,5.10
             7.14,5.10 14.82,6.25 14.82,6.25
             15.35,6.33 15.73,6.78 15.73,7.31
             15.73,7.31 15.73,20.56 15.73,20.56
             15.73,20.56 17.80,20.56 17.80,20.56
             18.01,20.56 18.18,20.39 18.18,20.18 Z" />
</svg>
