<?xml version="1.0" encoding="UTF-8" standalone="no"?>
<!DOCTYPE svg PUBLIC "-//W3C//DTD SVG 20010904//EN"
              "http://www.w3.org/TR/2001/REC-SVG-20010904/DTD/svg10.dtd">

<svg xmlns="http://www.w3.org/2000/svg"
     width="0.266667in" height="0.266667in"
     viewBox="0 0 24 24">
  <path id="Tracciato importato"
        fill="none" stroke="black" stroke-width="1"
        d="M 19.75,13.70
           C 19.75,13.70 19.75,15.79 19.75,15.79
             19.75,15.94 19.71,16.06 19.63,16.16
             19.55,16.27 19.45,16.32 19.32,16.32
             19.32,16.32 17.52,16.32 17.52,16.32
             17.52,16.32 17.52,14.11 17.52,14.11
             17.52,13.82 17.45,13.56 17.30,13.33
             17.16,13.10 16.97,12.92 16.73,12.79
             16.73,12.79 15.02,12.00 15.02,12.00
             14.94,11.95 14.87,11.90 14.80,11.83
             14.72,11.77 14.65,11.70 14.57,11.62
             14.98,10.98 15.19,10.26 15.19,9.48
             15.19,8.98 15.10,8.50 14.93,8.02
             15.07,7.92 15.23,7.84 15.40,7.78
             15.56,7.71 15.74,7.68 15.94,7.68
             16.48,7.68 16.94,7.90 17.32,8.35
             17.69,8.80 17.88,9.34 17.88,9.96
             17.88,10.41 17.79,10.81 17.60,11.16
             17.42,11.51 17.18,11.78 16.87,11.98
             16.87,11.98 19.49,13.22 19.49,13.22
             19.66,13.32 19.75,13.48 19.75,13.70
             19.75,13.70 19.75,13.70 19.75,13.70 Z
           M 16.70,14.11
           C 16.70,14.11 16.70,16.32 16.70,16.32
             16.70,16.32 16.70,16.70 16.70,16.70
             16.70,16.88 16.65,17.03 16.55,17.15
             16.44,17.27 16.32,17.33 16.18,17.33
             16.18,17.33 7.78,17.33 7.78,17.33
             7.62,17.33 7.48,17.27 7.38,17.15
             7.28,17.03 7.22,16.88 7.22,16.70
             7.22,16.70 7.22,16.32 7.22,16.32
             7.22,16.32 7.22,14.11 7.22,14.11
             7.22,13.82 7.34,13.62 7.58,13.51
             7.58,13.51 9.94,12.43 9.94,12.43
             9.94,12.43 10.85,12.00 10.85,12.00
             10.43,11.73 10.10,11.35 9.86,10.87
             9.66,10.42 9.55,9.96 9.55,9.48
             9.55,9.22 9.59,8.95 9.67,8.66
             9.82,8.09 10.10,7.61 10.51,7.24
             10.93,6.86 11.42,6.67 11.98,6.67
             12.54,6.67 13.03,6.86 13.45,7.25
             13.88,7.63 14.16,8.13 14.30,8.74
             14.34,8.86 14.36,8.99 14.38,9.11
             14.39,9.23 14.40,9.35 14.40,9.48
             14.40,9.72 14.37,9.95 14.32,10.18
             14.26,10.40 14.19,10.61 14.11,10.80
             14.00,11.06 13.86,11.28 13.69,11.48
             13.52,11.68 13.34,11.85 13.13,11.98
             13.13,11.98 14.09,12.43 14.09,12.43
             14.09,12.43 16.37,13.54 16.37,13.54
             16.59,13.63 16.70,13.82 16.70,14.11
             16.70,14.11 16.70,14.11 16.70,14.11 Z
           M 6.43,14.11
           C 6.43,14.11 6.43,16.32 6.43,16.32
             6.43,16.32 4.68,16.32 4.68,16.32
             4.55,16.32 4.45,16.27 4.37,16.16
             4.29,16.06 4.25,15.94 4.25,15.79
             4.25,15.79 4.25,13.70 4.25,13.70
             4.25,13.46 4.34,13.30 4.51,13.22
             4.51,13.22 7.18,12.00 7.18,12.00
             6.86,11.81 6.60,11.53 6.41,11.17
             6.22,10.81 6.12,10.41 6.12,9.96
             6.12,9.34 6.31,8.80 6.68,8.35
             7.06,7.90 7.52,7.68 8.06,7.68
             8.42,7.68 8.74,7.78 9.02,7.99
             8.94,8.22 8.88,8.45 8.82,8.70
             8.76,8.95 8.74,9.21 8.74,9.48
             8.74,9.88 8.79,10.26 8.90,10.63
             9.02,11.00 9.18,11.34 9.38,11.64
             9.29,11.77 9.16,11.88 9.00,11.98
             9.00,11.98 7.22,12.79 7.22,12.79
             6.98,12.92 6.79,13.10 6.65,13.33
             6.50,13.56 6.43,13.82 6.43,14.11
             6.43,14.11 6.43,14.11 6.43,14.11 Z
           M 8.81,0.43
           C 7.78,0.72 6.83,1.12 5.94,1.64
             5.05,2.16 4.24,2.79 3.52,3.52
             2.79,4.24 2.16,5.05 1.64,5.94
             1.12,6.83 0.72,7.78 0.43,8.81
             0.14,9.83 0.00,10.90 0.00,12.00
             0.00,13.10 0.14,14.17 0.43,15.19
             0.72,16.22 1.12,17.17 1.64,18.06
             2.16,18.95 2.79,19.76 3.52,20.48
             4.24,21.21 5.05,21.84 5.94,22.36
             6.83,22.88 7.78,23.28 8.81,23.57
             9.83,23.86 10.90,24.00 12.00,24.00
             13.10,24.00 14.17,23.86 15.19,23.57
             16.22,23.28 17.17,22.88 18.06,22.36
             18.95,21.84 19.76,21.21 20.48,20.48
             21.21,19.76 21.84,18.95 22.36,18.06
             22.88,17.17 23.28,16.22 23.57,15.19
             23.86,14.17 24.00,13.10 24.00,12.00
             24.00,10.35 23.68,8.80 23.05,7.33
             22.42,5.87 21.56,4.60 20.48,3.52
             19.40,2.44 18.13,1.58 16.67,0.95
             15.20,0.32 13.65,0.00 12.00,0.00
             10.90,0.00 9.83,0.14 8.81,0.43 Z" />
</svg>
